<?xml version="1.0" encoding="UTF-8"?>
<svg enable-background="new 0 0 512.001 512.001" version="1.1" viewBox="0 0 512.001 512.001" xml:space="preserve" xmlns="http://www.w3.org/2000/svg">
<path d="m327.08 171.11c-94.883 1.899-170.28 80.476-170.28 175.26l260.77 59.622h25.566c33.887 0 61.358-27.438 61.358-61.284 0-97.083-79.77-175.56-177.42-173.6z" fill="#9E7325"/>
<path d="m426.03 202.84c-0.496-1.9-1.185-3.77-2.057-5.579-0.911-1.781-2.027-3.483-3.301-5.099-0.638-0.807-1.309-1.578-2.009-2.31-0.718-0.719-1.479-1.388-2.257-2.022-1.56-1.266-3.222-2.367-4.956-3.284-3.548-1.77-7.381-2.806-11.32-2.963-7.83-0.275-13.895-6.324-14.485-14.04-0.132-1.97-0.474-3.918-1.013-5.82-0.564-1.873-1.351-3.671-2.307-5.408-1.877-3.514-4.669-6.511-7.961-9.039-6.741-4.881-15.02-6.73-22.758-4.791-7.548 1.71-15.143-2.165-17.87-9.529-1.393-3.693-3.617-7.018-6.48-9.814-2.91-2.684-6.406-4.969-10.398-6.263-3.943-1.427-8.11-1.802-12.067-1.458-3.98 0.414-7.803 1.721-11.167 3.75-6.691 4.154-15.042 2.592-20.031-3.333-1.256-1.53-2.676-2.942-4.239-4.165-1.566-1.174-3.273-2.193-5.087-3.044-0.907-0.425-1.841-0.809-2.797-1.148-0.957-0.322-1.938-0.56-2.936-0.775-1.996-0.419-4.064-0.655-6.163-0.698-2.099 0.044-4.167 0.28-6.163 0.698-0.998 0.214-1.979 0.453-2.936 0.775-0.956 0.34-1.89 0.723-2.797 1.148-1.814 0.851-3.521 1.869-5.088 3.044-1.563 1.223-2.983 2.635-4.239 4.165-4.988 5.924-13.339 7.486-20.032 3.332-3.364-2.029-7.186-3.336-11.166-3.75-3.957-0.344-8.124 0.031-12.067 1.458-3.992 1.294-7.488 3.58-10.398 6.264-2.863 2.796-5.087 6.122-6.48 9.815-2.726 7.363-10.32 11.238-17.871 9.529-7.736-1.939-16.015-0.09-22.756 4.791-3.292 2.528-6.084 5.526-7.962 9.039-0.956 1.737-1.743 3.536-2.308 5.409-0.539 1.902-0.881 3.85-1.013 5.82-0.588 7.715-6.653 13.764-14.485 14.04-3.939 0.157-7.771 1.193-11.319 2.963-1.734 0.918-3.395 2.019-4.956 3.284-0.778 0.634-1.54 1.303-2.257 2.022-0.7 0.732-1.371 1.503-2.009 2.31-1.274 1.616-2.39 3.318-3.3 5.099-0.872 1.809-1.562 3.679-2.057 5.579-1.035 3.773-1.081 7.805-0.396 11.658 0.174 0.953 0.25 1.899 0.234 2.828 5e-3 0.942-0.08 1.868-0.249 2.767-0.339 1.798-1.015 3.49-1.982 5.001-1.892 3.045-4.848 5.441-8.652 6.463-3.759 1.087-7.272 2.953-10.287 5.484-1.473 1.282-2.833 2.724-4.057 4.302-0.612 0.789-1.19 1.612-1.73 2.465-0.519 0.864-0.991 1.763-1.428 2.687-0.872 1.85-1.558 3.754-2.051 5.68-0.466 1.937-0.695 3.915-0.755 5.869-0.042 1.962 0.06 3.892 0.451 5.818 0.384 1.923 0.962 3.803 1.736 5.615 0.777 1.799 1.103 3.6 1.183 5.471l200.33 65.808 136.35-95.109c34.771-7.225 39.02-31.149 39.02-31.149 0.683-3.856 0.637-7.888-0.398-11.66z" fill="#C4C65A"/>
<path d="m387.41 245.64c-14.46 11.751-81.002 50.627-136.35 95.109l145.19 47.694c2.17-3.356 5.193-5.678 8.583-6.966 1.709-0.614 3.471-1.086 5.353-1.126 1.858-0.095 3.753 0.043 5.696 0.608 3.89 1.057 8.129 1.077 12.258-7e-3 2.091-0.5 4.058-1.398 6.041-2.404 1.918-1.085 3.767-2.399 5.462-3.925 3.333-3.12 5.9-6.857 7.292-10.891 0.356-1.002 0.657-2.009 0.9-3.014 0.214-1.028 0.356-2.064 0.448-3.087 0.09-1.024 0.121-2.04 0.093-3.043-0.052-1.019-0.182-2.038-0.36-3.031-0.356-1.962-0.32-3.855-0.091-5.715 0.131-0.921 0.344-1.813 0.636-2.673 0.282-0.865 0.582-1.729 0.992-2.537 0.397-0.815 0.892-1.582 1.423-2.325 0.506-0.754 1.087-1.465 1.739-2.127 1.339-1.311 2.838-2.483 4.607-3.395 0.9-0.461 1.78-0.98 2.634-1.554 0.819-0.586 1.602-1.23 2.362-1.925 0.758-0.695 1.488-1.441 2.185-2.234 0.663-0.802 1.268-1.658 1.85-2.552 0.571-0.896 1.135-1.827 1.604-2.805 0.447-0.982 0.854-2 1.216-3.046 0.776-2.085 1.137-4.318 1.386-6.591 0.231-2.275 0.056-4.55-0.205-6.733-0.392-2.186-0.972-4.292-1.78-6.254-0.889-1.958-1.914-3.781-3.16-5.41-1.305-1.622-2.756-3.061-4.334-4.282-1.603-1.195-2.967-2.587-3.977-4.125-1.021-1.536-1.901-3.17-2.359-4.924-0.492-1.744-0.821-3.536-0.719-5.409 0.08-1.871 0.406-3.673 1.183-5.472 0.773-1.811 1.352-3.691 1.736-5.614 0.391-1.925 0.493-3.856 0.451-5.818-0.06-1.955-0.289-3.932-0.755-5.869-0.494-1.925-1.179-3.83-2.051-5.68-0.437-0.924-0.909-1.823-1.428-2.687-0.541-0.854-1.118-1.676-1.73-2.465-1.224-1.578-2.584-3.02-4.057-4.302-0.335-0.281-0.676-0.554-1.023-0.819-4.431-3.38-9.899-5.814-15.431-6.503-14.17-1.765-26.076 1.766-43.503 15.928z" fill="#915729"/>
<g fill="#C95A3A">
	<ellipse cx="265.2" cy="203.76" rx="61.36" ry="61.28"/>
	<ellipse cx="130.22" cy="221.13" rx="61.36" ry="61.28"/>
	<ellipse cx="68.858" cy="308.87" rx="61.36" ry="61.28"/>
	<ellipse cx="361.33" cy="293.65" rx="61.36" ry="61.28"/>
</g>
<path d="m353.69 191.31c10.969-2.936 21.007 7.09 18.068 18.046l-5.73 21.361-5.73 21.361c-2.939 10.956-16.651 14.626-24.681 6.605l-15.656-15.637-15.656-15.637c-8.03-8.02-4.356-21.716 6.613-24.651l21.386-5.724 21.386-5.724z" fill="#A7A951"/>
<path d="m344.93 228.53l5.73-21.361c1.448-5.398-0.262-10.562-3.674-14.069l-14.686 3.93-21.386 5.723c-10.969 2.936-14.643 16.631-6.613 24.651l15.656 15.637 14.41 14.393c2.241-1.841 3.985-4.389 4.832-7.545l5.731-21.359z" fill="#D1D274"/>
<path d="m190.15 150.07c5.678-7.402 19.874-7.402 25.552 0l11.07 14.432 11.07 14.432c5.678 7.402-1.42 16.655-12.776 16.655h-44.282c-11.356 0-18.454-9.253-12.776-16.655l11.07-14.432 11.072-14.432z" fill="#A7A951"/>
<path d="m210.31 174.57l-11.07-14.432c-2.797-3.647-7.663-5.488-12.558-5.542l-7.602 9.91-11.07 14.432c-5.678 7.402 1.42 16.655 12.776 16.655h42.52c0.281-2.174-0.289-4.46-1.925-6.592l-11.071-14.431z" fill="#D1D274"/>
<path d="m36.573 236.45c-1.225-9.244 8.812-19.27 18.068-18.046l18.045 2.386 18.045 2.386c9.256 1.224 10.787 12.78 2.757 20.8l-15.656 15.637-15.656 15.637c-8.03 8.021-19.6 6.491-20.825-2.754l-2.389-18.023-2.389-18.023z" fill="#A7A951"/>
<path d="m68.17 239.53l-18.045-2.386c-4.56-0.603-9.304 1.531-12.803 4.951l1.641 12.376 2.389 18.023c1.225 9.244 12.795 10.774 20.825 2.754l15.656-15.637 14.41-14.393c-1.34-1.736-3.362-2.949-6.028-3.302l-18.045-2.386z" fill="#D1D274"/>
<path d="m34.088 346.38c0-94.788 75.397-173.37 170.28-175.26 97.646-1.954 177.42 76.52 177.42 173.6 0 33.846 27.471 61.284 61.358 61.284h-349.36c-32.969 0-59.695-26.694-59.695-59.622z" fill="#EBD37A"/>
<path d="m382.36 353h-347.89c3.3 29.81 28.593 53 59.319 53h349.36c-31.072 0-56.733-23.074-60.785-53z" fill="#D9B43A"/>
<path d="m458.03 215.79c-2.949-2.907-7.698-2.873-10.605 0.076-2.908 2.95-2.874 7.699 0.076 10.606 1.601 1.578 3.156 3.19 4.684 4.82-0.426-0.357-0.859-0.704-1.294-1.036-5.669-4.324-12.436-7.159-19.052-7.982-0.161-0.02-0.318-0.033-0.478-0.052 1.69-3.358 2.287-5.671 2.355-5.953 0.037-0.152 0.069-0.306 0.097-0.46 0.916-5.144 0.727-10.315-0.522-14.865-0.617-2.364-1.478-4.698-2.557-6.939-0.026-0.054-0.053-0.108-0.08-0.162-1.103-2.156-2.479-4.284-4.098-6.339-0.779-0.984-1.61-1.939-2.469-2.837-0.037-0.04-0.075-0.079-0.114-0.117-0.845-0.846-1.771-1.677-2.839-2.546-1.933-1.569-4.01-2.944-6.172-4.089-0.054-0.028-0.106-0.055-0.16-0.082-4.587-2.289-9.422-3.549-14.406-3.748-3.907-0.137-6.965-3.129-7.264-7.049-0.167-2.474-0.598-4.95-1.281-7.361-0.011-0.039-0.022-0.077-0.034-0.116-0.688-2.287-1.67-4.596-2.873-6.781-2.265-4.239-5.633-8.093-10.01-11.454-0.056-0.043-0.112-0.085-0.169-0.126-8.612-6.236-19.131-8.427-28.88-6.016-3.989 0.873-7.733-1.108-9.129-4.876-1.771-4.695-4.549-8.912-8.257-12.534-0.051-0.05-0.103-0.099-0.155-0.147-3.976-3.667-8.365-6.306-13.049-7.845-4.707-1.684-9.811-2.302-15.151-1.834-0.042 3e-3 -0.083 7e-3 -0.125 0.012-5.001 0.52-9.935 2.175-14.348 4.838-3.412 2.119-7.665 1.383-10.279-1.721-1.642-1.999-3.463-3.786-5.414-5.312-0.04-0.032-0.081-0.063-0.122-0.094-1.965-1.473-4.118-2.763-6.402-3.834-1.122-0.525-2.289-1.005-3.469-1.424-0.041-0.015-0.082-0.029-0.124-0.043-1.402-0.471-2.738-0.78-3.785-1.005-2.458-0.516-4.997-0.804-7.547-0.856-0.104-2e-3 -0.207-2e-3 -0.311 0-2.549 0.053-5.088 0.341-7.586 0.865-1.01 0.217-2.349 0.527-3.749 0.998-0.04 0.014-0.081 0.028-0.121 0.042-1.183 0.42-2.351 0.9-3.469 1.425-2.281 1.069-4.435 2.359-6.401 3.832-0.042 0.032-0.084 0.064-0.126 0.097-1.949 1.526-3.771 3.313-5.354 5.241-2.671 3.174-6.923 3.911-10.42 1.741-4.331-2.613-9.264-4.268-14.265-4.788-0.042-4e-3 -0.083-8e-3 -0.125-0.012-5.346-0.467-10.444 0.151-15.151 1.834-4.685 1.539-9.074 4.179-13.05 7.847-0.052 0.048-0.104 0.097-0.154 0.146-3.709 3.622-6.487 7.84-8.273 12.578-1.38 3.726-5.125 5.706-9.115 4.832-9.748-2.409-20.266-0.219-28.877 6.017-0.058 0.042-0.113 0.083-0.169 0.126-4.378 3.361-7.745 7.215-10.01 11.455-0.214 0.401-0.382 0.815-0.517 1.233-27.216 6.092-48.702 28.431-53.088 56.482l-6.574-0.869c-6.646-0.881-13.851 1.828-19.262 7.24-5.403 5.405-8.104 12.592-7.224 19.227l2.019 15.236c-19.318 12.646-31.157 34.317-31.157 57.541 0 22.546 10.893 43.357 29.277 56.26 8.145 27.912 33.97 48.371 64.506 48.371h286.36c4.143 0 7.5-3.358 7.5-7.5s-3.357-7.5-7.5-7.5h-286.36c-28.779 0-52.193-23.382-52.193-52.123 0-90.708 73.09-165.97 162.93-167.77 45.124-0.905 87.741 15.974 119.93 47.523 32.139 31.501 49.838 73.614 49.838 118.58 0 17.638 6.687 33.742 17.653 45.929 0.298 0.401 0.64 0.778 1.027 1.124 0.03 0.027 0.063 0.05 0.094 0.076 12.565 13.317 30.363 21.654 50.084 21.654 37.969 0 68.858-30.856 68.858-68.784-1e-3 -48.834-19.168-94.622-53.971-128.93zm-16.231 26.398c0.235 0.179 0.466 0.363 0.692 0.552 1.084 0.95 2.096 2.026 3.003 3.195 0.451 0.583 0.88 1.191 1.273 1.809 0.352 0.589 0.689 1.23 1.028 1.945 0.655 1.392 1.179 2.836 1.557 4.292 0.31 1.307 0.49 2.749 0.536 4.222 0.035 1.651-0.061 2.974-0.308 4.189-0.285 1.426-0.715 2.817-1.268 4.111-1.075 2.494-1.661 5.149-1.786 8.037-0.134 2.467 0.175 4.943 0.972 7.787 0.615 2.315 1.712 4.64 3.327 7.069 1.458 2.221 3.375 4.23 5.699 5.973 1.062 0.828 2.062 1.817 2.976 2.942 0.773 1.026 1.487 2.258 2.179 3.76 0.525 1.304 0.943 2.78 1.244 4.394 0.178 1.53 0.326 3.275 0.171 4.802-0.17 1.552-0.417 3.335-0.959 4.79-0.021 0.054-0.04 0.109-0.059 0.164-0.275 0.794-0.585 1.575-0.922 2.32-0.315 0.646-0.75 1.349-1.099 1.899-0.459 0.706-0.877 1.289-1.274 1.777-0.493 0.556-1.01 1.082-1.531 1.56-0.54 0.494-1.058 0.919-1.578 1.298-0.58 0.384-1.178 0.734-1.796 1.05-2.298 1.185-4.398 2.724-6.42 4.706-0.03 0.03-0.061 0.06-0.091 0.09-0.947 0.961-1.809 2.009-2.561 3.116-0.823 1.159-1.454 2.199-1.976 3.26-0.618 1.228-1.036 2.413-1.395 3.513-0.433 1.279-0.75 2.619-0.944 3.982-6e-3 0.046-0.012 0.091-0.018 0.137-0.353 2.853-0.302 5.461 0.151 7.955 0.129 0.721 0.212 1.396 0.247 2.008 0.017 0.682-7e-3 1.384-0.067 2.075-0.068 0.756-0.168 1.466-0.298 2.113-0.176 0.71-0.395 1.435-0.671 2.211-0.952 2.758-2.774 5.458-5.274 7.812-1.199 1.073-2.524 2.029-3.94 2.842-1.402 0.708-2.878 1.395-4.233 1.718-0.054 0.013-0.108 0.027-0.162 0.041-2.801 0.735-5.684 0.749-8.335 0.037-2.53-0.725-5.144-1.013-7.991-0.879-3.161 0.087-5.854 0.932-7.611 1.563-0.043 0.016-0.087 0.032-0.13 0.048-1.013 0.385-1.987 0.833-2.927 1.333-4.17-5.857-7.199-12.574-8.753-19.835 0.04-0.018 0.082-0.03 0.122-0.049 24.05-11.297 39.589-35.739 39.589-62.27 0-19.209-7.982-36.785-20.946-49.365 4.04-2.227 7.426-4.659 10.276-7.128 3.243-0.462 6.667-0.469 10.466 2e-3 4.025 0.499 8.218 2.283 11.815 5.027zm-290.49-92.43c0.056 0.014 0.111 0.027 0.167 0.04 11.392 2.578 22.554-3.413 26.545-14.198 0.979-2.598 2.536-4.959 4.628-7.021 2.383-2.181 4.921-3.718 7.545-4.569 0.081-0.026 0.16-0.053 0.24-0.082 2.618-0.948 5.659-1.309 8.801-1.043 2.801 0.3 5.567 1.235 7.925 2.656 9.748 6.051 22.25 4.003 29.781-4.943 0.929-1.131 1.94-2.131 3.006-2.973 1.132-0.84 2.38-1.583 3.713-2.208 0.662-0.311 1.354-0.596 2.058-0.849 0.679-0.224 1.458-0.401 2.028-0.524 1.501-0.314 3.056-0.495 4.625-0.537 1.568 0.042 3.122 0.222 4.584 0.528 0.895 0.193 1.537 0.358 2.068 0.533 0.703 0.252 1.396 0.538 2.059 0.848 1.332 0.625 2.58 1.368 3.71 2.208 1.066 0.841 2.077 1.841 3.063 3.042 7.475 8.876 19.976 10.927 29.643 4.923 2.438-1.47 5.204-2.405 8.006-2.706 3.143-0.265 6.183 0.096 8.803 1.044 0.079 0.028 0.159 0.056 0.239 0.082 2.624 0.851 5.162 2.388 7.545 4.568 2.091 2.062 3.647 4.423 4.611 6.98 4.011 10.828 15.183 16.816 26.56 14.24 0.056-0.013 0.111-0.026 0.167-0.04 5.436-1.36 11.426-0.076 16.452 3.53 2.629 2.034 4.591 4.241 5.874 6.642 0.729 1.324 1.293 2.634 1.678 3.895 0.389 1.388 0.635 2.809 0.734 4.288 0.882 11.548 10.21 20.561 21.664 20.963 2.784 0.111 5.54 0.831 8.189 2.14 1.274 0.681 2.505 1.5 3.65 2.43 0.63 0.513 1.164 0.987 1.629 1.448 0.518 0.545 1.019 1.124 1.482 1.709 0.987 1.252 1.819 2.528 2.474 3.792 0.642 1.345 1.152 2.738 1.542 4.228 0.66 2.407 0.764 5.17 0.303 8.012-0.567 1.815-4.984 13.947-23.354 21.245-6.427-3.718-13.526-6.426-21.099-7.908l4.351-16.217c2.081-7.758-0.067-15.784-5.747-21.468-5.688-5.691-13.727-7.845-21.503-5.767l-19.532 5.227c-7.256-30.915-34.828-52.966-67.016-52.966-14.688 0-28.67 4.558-40.495 13.172l-3.058-3.987c-4.076-5.314-11.077-8.487-18.728-8.487-7.649 0-14.65 3.173-18.727 8.487l-15.369 20.036c-9.852-6.687-21.111-10.655-32.92-11.619 4.799-3.06 10.343-4.091 15.406-2.824zm87.189 16.378l-4.66-6.075c9.178-6.591 19.997-10.079 31.361-10.079 25.332 0 47.014 17.445 52.526 41.843l-8.755 2.343c-0.027 7e-3 -0.053 0.017-0.08 0.024-21.239-14.283-45.131-23.804-70.392-28.056zm-108.29 1.211c7.826 0 15.426 1.67 22.407 4.872-25.524 8.22-49.023 22.157-68.939 41.116l-6.618-0.875c4.181-25.644 26.673-45.113 53.15-45.113zm-83.245 60.123c2.069-2.07 4.695-3.237 6.687-2.975l17.248 2.281c-9.121 10.6-16.93 22.084-23.331 34.249l-3.566-26.904c-0.263-1.978 0.9-4.588 2.962-6.651zm-31.971 81.403c0-15.634 6.865-30.371 18.42-40.481l0.496 3.745c0.489 3.69 2.054 6.928 4.428 9.404-7.246 19.217-11.241 39.691-11.706 60.707-7.444-9.36-11.638-21.032-11.638-33.375zm189.22-145.25c-5.684 0.114-11.323 0.499-16.907 1.134l8.788-11.456c1.219-1.589 3.897-2.616 6.824-2.616 2.928 0 5.606 1.027 6.825 2.617l8.092 10.55c-4.512-0.242-9.055-0.319-13.622-0.229zm119.91 42.021l31.497-8.429c3.653-0.979 6.124 0.988 7.015 1.88 0.887 0.887 2.845 3.344 1.869 6.978l-8.95 33.361c-6.102-8.491-12.985-16.521-20.617-24.002-3.494-3.425-7.104-6.683-10.814-9.788zm42.123 50.571c0.52-1.135 0.957-2.312 1.285-3.534l3.216-11.987c25.513 4.488 44.434 26.794 44.434 52.961 0 18.847-10.036 36.346-25.979 46.016-0.807-29.72-8.732-58.171-22.956-83.456zm76.887 142.29c-12.044 0-23.177-3.97-32.157-10.666 1.041-0.02 1.946 0.08 2.797 0.328 0.041 0.012 0.083 0.024 0.125 0.035 5.173 1.406 10.723 1.416 16.052 0.03 2.894-0.703 5.468-1.905 7.607-2.99 0.1-0.051 0.199-0.104 0.297-0.159 2.441-1.38 4.726-3.022 6.791-4.882 0.035-0.032 0.07-0.064 0.105-0.097 4.304-4.028 7.505-8.841 9.233-13.853 0.442-1.243 0.82-2.509 1.124-3.763 0.019-0.079 0.036-0.157 0.053-0.236 0.258-1.241 0.452-2.568 0.577-3.959 0.114-1.31 0.154-2.625 0.118-3.911-2e-3 -0.056-4e-3 -0.112-7e-3 -0.168-0.064-1.262-0.221-2.599-0.471-3.992-0.181-0.994-0.191-2.07-0.035-3.381 0.065-0.434 0.166-0.852 0.3-1.244 0.012-0.034 0.022-0.068 0.034-0.103 0.18-0.553 0.37-1.113 0.548-1.463 0.018-0.035 0.035-0.07 0.053-0.105 0.161-0.331 0.416-0.739 0.78-1.247 0.044-0.062 0.087-0.124 0.129-0.187 0.236-0.351 0.509-0.687 0.813-1 0.917-0.891 1.813-1.557 2.724-2.026 1.156-0.592 2.299-1.266 3.396-2.003 0.063-0.042 0.125-0.085 0.187-0.129 1.026-0.735 2.054-1.571 3.062-2.492 0.953-0.873 1.88-1.821 2.755-2.817 0.049-0.056 0.098-0.113 0.146-0.17 0.786-0.951 1.557-2.012 2.396-3.303 0.638-1.002 1.379-2.213 2.04-3.591 0.021-0.044 0.042-0.089 0.063-0.134 0.532-1.168 1.02-2.387 1.45-3.623 1.098-2.984 1.528-6.003 1.787-8.363 0.318-3.132 0.05-6.125-0.22-8.382-0.018-0.145-0.039-0.29-0.064-0.433-0.501-2.793-1.25-5.413-2.227-7.786-0.034-0.083-0.07-0.167-0.107-0.249-1.199-2.638-2.517-4.882-4.029-6.861-0.037-0.049-0.075-0.098-0.114-0.146-1.678-2.087-3.559-3.942-5.588-5.513-0.036-0.027-0.071-0.055-0.107-0.082-0.933-0.695-1.689-1.465-2.215-2.265-0.722-1.086-1.163-1.958-1.348-2.666-0.013-0.047-0.025-0.094-0.039-0.141-0.348-1.235-0.49-2.177-0.443-3.047 0.05-1.145 0.228-2.016 0.588-2.851 0.969-2.268 1.706-4.654 2.188-7.065 0.463-2.275 0.659-4.719 0.598-7.542-0.078-2.587-0.401-5.074-0.959-7.394l-0.027-0.111c-0.613-2.39-1.465-4.748-2.536-7.024-0.573-1.211-1.156-2.305-1.781-3.344-0.029-0.048-0.059-0.097-0.089-0.145-0.222-0.352-0.461-0.697-0.696-1.044 24.743 29.731 38.201 66.781 38.201 105.97 0 29.657-24.161 53.784-53.858 53.784z"/>
<circle cx="139.09" cy="255" r="7.5"/>
<circle cx="103.09" cy="285" r="7.5"/>
<circle cx="163.09" cy="309" r="7.5"/>
<circle cx="104.09" cy="249" r="7.5"/>
<circle cx="194.09" cy="219" r="7.5"/>
<circle cx="224.09" cy="289" r="7.5"/>
<circle cx="254.09" cy="239" r="7.5"/>
<circle cx="324.09" cy="299" r="7.5"/>
</svg>
